                   Play It to the Bone 1999 DVDRip Xvid fasamoo LKRG

RIPPER                           : fasamoo
Format                           : AVI
Format/Info                      : Audio Video Interleave
File size                        : 800 MiB
Duration                         : 2h 3mn
Overall bit rate                 : 903 Kbps
Writing application              : VirtualDubMod 1.5.4.1 (build 2178/release)
Writing library                  : VirtualDubMod build 2178/release
Language                         : English
Subtitles                        : English(*.srt)
Genre                            : Comedy | Drama | Sport

Video
ID                               : 0
Format                           : MPEG-4 Visual
Format profile                   : Advanced Simple@L5
Format settings, BVOP            : Yes
Format settings, QPel            : No
Format settings, GMC             : No warppoints
Format settings, Matrix          : Custom
Codec ID                         : XVID
Codec ID/Hint                    : XviD
Duration                         : 2h 3mn
Bit rate                         : 776 Kbps
Width                            : 560 pixels
Height                           : 240 pixels
Display aspect ratio             : 2.35:1
Frame rate                       : 23.976 fps
Color space                      : YUV
Chroma subsampling               : 4:2:0
Bit depth                        : 8 bits
Scan type                        : Progressive
Bits/(Pixel*Frame)               : 0.241
Stream size                      : 688 MiB (86%)
Writing library                  : XviD 1.2.1 (UTC 2008-12-04)

Audio
ID                               : 1
Format                           : MPEG Audio
Format version                   : Version 1
Format profile                   : Layer 3
Mode                             : Joint stereo
Mode extension                   : MS Stereo
Codec ID                         : 55
Codec ID/Hint                    : MP3
Duration                         : 2h 3mn
Bit rate mode                    : Variable
Bit rate                         : 114 Kbps
Nominal bit rate                 : 128 Kbps
Channel(s)                       : 2 channels
Sampling rate                    : 48.0 KHz
Stream size                      : 101 MiB (13%)
Alignment                        : Aligned on interleaves
Interleave, duration             : 24 ms (0.58 video frame)
Interleave, preload duration     : 511 ms
Writing library                  : LAME3.98r
Encoding settings                : -m j -V 4 -q 2 -lowpass 17 --abr 128



                                 PLOT

Two aging fighters in LA, friends, get a call from a Vegas promoter because his undercard fighters for a Mike Tyson bout that night are suddenly unavailable. He wants them to box each other. They agree as long as the winner gets a shot at the middleweight title. They enlist Grace, Cesar's current and Vinnie's ex girlfriend, to drive them to Vegas. On the trip, we see flashbacks to their previous title shots, their competitive friendship, and Grace's motivational wiles. (She has her own entrepreneurial dreams.) The fight itself is historic: ten rounds of savagery and courage. Who will win, who'll get the title shot, who gets Grace, and where will she find venture capital?


                                 IMBD
                     
                    http://www.imdb.com/title/tt0196857/
 
http://leetleech.org/images/46994150810230311047.png 
http://leetleech.org/images/48471850160361610298.png 
http://leetleech.org/images/67182702147743163509.png 
http://leetleech.org/images/62183285035508802602.png 
http://leetleech.org/images/95880045279125184067.png